<?xml version="1.0" encoding="UTF-8" standalone="no"?>
<svg
   xmlns:dc="http://purl.org/dc/elements/1.1/"
   xmlns:cc="http://creativecommons.org/ns#"
   xmlns:rdf="http://www.w3.org/1999/02/22-rdf-syntax-ns#"
   xmlns:svg="http://www.w3.org/2000/svg"
   xmlns="http://www.w3.org/2000/svg"
   xmlns:sodipodi="http://sodipodi.sourceforge.net/DTD/sodipodi-0.dtd"
   xmlns:inkscape="http://www.inkscape.org/namespaces/inkscape"
   enable-background="new 0 0 32 32"
   height="34.593582"
   id="Layer_1"
   version="1.1"
   viewBox="0 0 85.790695 34.593582"
   width="85.790695"
   xml:space="preserve"
   sodipodi:docname="icon.svg"
   inkscape:version="1.0.2 (1.0.2+r75+1)"><metadata
     id="metadata16"><rdf:RDF><cc:Work
         rdf:about=""><dc:format>image/svg+xml</dc:format><dc:type
           rdf:resource="http://purl.org/dc/dcmitype/StillImage" /><dc:title></dc:title></cc:Work></rdf:RDF></metadata><defs
     id="defs14"><marker
       style="overflow:visible"
       id="Arrow2Mend"
       refX="0"
       refY="0"
       orient="auto"
       inkscape:stockid="Arrow2Mend"
       inkscape:isstock="true"><path
         transform="scale(-0.6)"
         d="M 8.7185878,4.0337352 -2.2072895,0.01601326 8.7185884,-4.0017078 c -1.7454984,2.3720609 -1.7354408,5.6174519 -6e-7,8.035443 z"
         style="fill:#c9c9c9;fill-opacity:1;fill-rule:evenodd;stroke:#c9c9c9;stroke-width:0.625;stroke-linejoin:round;stroke-opacity:1"
         id="path943" /></marker><marker
       style="overflow:visible"
       id="Arrow2Lend"
       refX="0"
       refY="0"
       orient="auto"
       inkscape:stockid="Arrow2Lend"
       inkscape:isstock="true"><path
         transform="matrix(-1.1,0,0,-1.1,-1.1,0)"
         d="M 8.7185878,4.0337352 -2.2072895,0.01601326 8.7185884,-4.0017078 c -1.7454984,2.3720609 -1.7354408,5.6174519 -6e-7,8.035443 z"
         style="fill:#333333;fill-opacity:1;fill-rule:evenodd;stroke:#333333;stroke-width:0.625;stroke-linejoin:round;stroke-opacity:1"
         id="path937" /></marker><marker
       style="overflow:visible"
       id="Arrow1Lstart"
       refX="0"
       refY="0"
       orient="auto"
       inkscape:stockid="Arrow1Lstart"
       inkscape:isstock="true"><path
         transform="matrix(0.8,0,0,0.8,10,0)"
         style="fill:#333333;fill-opacity:1;fill-rule:evenodd;stroke:#333333;stroke-width:1pt;stroke-opacity:1"
         d="M 0,0 5,-5 -12.5,0 5,5 Z"
         id="path916" /></marker></defs><sodipodi:namedview
     pagecolor="#ffffff"
     bordercolor="#666666"
     borderopacity="1"
     objecttolerance="10"
     gridtolerance="10"
     guidetolerance="10"
     inkscape:pageopacity="0"
     inkscape:pageshadow="2"
     inkscape:window-width="1294"
     inkscape:window-height="704"
     id="namedview12"
     showgrid="false"
     inkscape:pagecheckerboard="false"
     showguides="true"
     inkscape:guide-bbox="true"
     inkscape:zoom="3.0383495"
     inkscape:cx="80.992255"
     inkscape:cy="-16.292139"
     inkscape:window-x="72"
     inkscape:window-y="27"
     inkscape:window-maximized="1"
     inkscape:current-layer="Layer_1"
     fit-margin-top="0"
     fit-margin-left="0"
     fit-margin-right="0"
     fit-margin-bottom="0"><sodipodi:guide
       position="56.119822,33.740213"
       orientation="0,-1"
       id="guide912" /></sodipodi:namedview><g
     id="data"
     transform="translate(55.790696,1.182495)"><path
       d="M 16,0 C 9.256,0 2,2.033 2,6.5 v 19 c 0,4.465 7.256,6.5 14,6.5 6.743,0 14,-2.035 14,-6.5 V 6.5 C 30,2.033 22.742,0 16,0 Z M 28,25.5 C 28,27.984 22.627,30 16,30 9.372,30 4,27.984 4,25.5 V 21.764 C 6.066,23.893 11.05,25 16,25 c 4.95,0 9.934,-1.107 12,-3.236 z m 0,-6 H 27.996 C 27.996,19.51 28,19.521 28,19.531 28,22 22.627,24 16,24 9.373,24 4,22 4,19.531 4,19.521 4.004,19.51 4.004,19.5 H 4 V 15.764 C 6.066,17.893 11.05,19 16,19 c 4.95,0 9.934,-1.107 12,-3.236 z m 0,-6 H 27.996 C 27.996,13.51 28,13.521 28,13.531 28,16 22.627,18 16,18 9.373,18 4,16 4,13.531 4,13.521 4.004,13.51 4.004,13.5 H 4 V 10.064 C 6.621,12.061 11.425,13 16,13 c 4.575,0 9.379,-0.939 12,-2.936 z M 16,11 C 9.372,11 4,8.984 4,6.5 4,4.014 9.372,2 16,2 22.627,2 28,4.014 28,6.5 28,8.984 22.627,11 16,11 Z"
       fill="#333333"
       id="path2" /><circle
       cx="25"
       cy="26"
       fill="#333333"
       r="1"
       id="circle4" /><circle
       cx="25"
       cy="20"
       fill="#333333"
       r="1"
       id="circle6" /><circle
       cx="25"
       cy="14"
       fill="#333333"
       r="1"
       id="circle8" /></g><g
     id="g910"
     transform="matrix(0.5891808,0,0,0.5891808,-1.6755123,-0.36384687)"><path
       id="path1718"
       style="fill:none;stroke:#ffffff;stroke-width:7.5;stroke-linecap:round;stroke-linejoin:round"
       transform="translate(-1.2549)"
       d="m 18.517,5.4601 v 38.228 l 6.659,2.96 V 8.4201 L 18.517,5.4602 Z" /><path
       id="path1716"
       style="fill:none;stroke:#ffffff;stroke-width:10;stroke-linejoin:round"
       d="M 8.4062,5.7812 C 8.0515,6.0067 7.8437,6.462 7.8438,7.0625 v 35.438 c 0,1.201 0.8814,2.584 1.9687,3.094 l 18.282,8.594 c 1.022,0.479 1.809,-0.04 1.906,-1.094 0.097,1.056 0.884,1.573 1.906,1.094 l 18.282,-8.594 c 1.087,-0.51 1.968,-1.891 1.968,-3.094 V 7.0625 c 0,-1.2025 -0.881,-1.7596 -1.968,-1.2495 l -18.282,8.5935 c -1.03,0.484 -1.821,1.751 -1.906,2.906 -0.085,-1.153 -0.876,-2.422 -1.906,-2.906 L 9.8125,5.813 C 9.2693,5.558 8.7615,5.5563 8.4067,5.7817 Z" /><path
       id="rect602"
       style="fill:#ffffff;fill-rule:evenodd;stroke:#333333;stroke-width:4.844;stroke-linejoin:round;stroke-opacity:1"
       d="m 42.523,12.412 c -1.108,0 -2,0.892 -2,2 v 32.645 c 0,1.108 0.892,2 2,2 h 18.649 c 1.108,0 2,-0.892 2,-2 V 14.412 c 0,-1.108 -0.892,-2 -2,-2 z"
       transform="matrix(0.98133,-0.46038,0,1.0857,-9.8289,20.499)" /><path
       id="rect603"
       style="fill:#ffffff;fill-rule:evenodd;stroke:#333333;stroke-width:4.8736;stroke-linejoin:round;stroke-opacity:1"
       d="m -33.321,1.9864 c -1.114,0 -2.011,0.8967 -2.011,2.0105 v 32.879 c 0,1.113 0.897,2.01 2.011,2.01 h 18.747 c 1.114,0 2.011,-0.897 2.011,-2.01 V 3.9969 c 0,-1.1139 -0.897,-2.0106 -2.011,-2.0106 h -18.747 z"
       transform="matrix(-0.97617,-0.45795,0,1.0782,-4.427,-3.0023)" /><path
       id="rect604"
       style="fill:#ffffff;fill-rule:evenodd;stroke:#333333;stroke-width:2.5796;stroke-linecap:round;stroke-linejoin:round;stroke-opacity:1"
       sodipodi:nodetypes="ccccc"
       d="m 19.85,9.3581 v 36.865 h 6.871 V 9.3581 l -6.871,10e-5 z"
       transform="matrix(0.96915,0.43073,0,0.96915,-1.9748,-12.159)" /></g><path
     style="fill:none;stroke:#c9c9c9;stroke-width:2;stroke-linecap:butt;stroke-linejoin:miter;stroke-miterlimit:4;stroke-dasharray:none;stroke-opacity:1;marker-end:url(#Arrow2Mend)"
     d="m 32.566721,16.838804 h 20.50821"
     id="path914"
     sodipodi:nodetypes="cc" /></svg>
